<svg xmlns="http://www.w3.org/2000/svg" version="1.1" xmlns:xlink="http://www.w3.org/1999/xlink" xmlns:svgjs="http://svgjs.dev/svgjs" viewBox="0 0 800 800"><defs><filter id="uuunion-blur" x="-100%" y="-100%" width="400%" height="400%" color-interpolation-filters="sRGB">
        <feGaussianBlur in="SourceGraphic" stdDeviation="7 0" result="blur"></feGaussianBlur>
        <feDropShadow stdDeviation="12.307692307692308" in="blur" dx="10" dy="10" flood-color="hsl(205, 100%, 96%)" flood-opacity="0.26" x="0%" y="0%" width="100%" height="100%"></feDropShadow>
      </filter><filter id="uuunion-blur2" x="-100%" y="-100%" width="400%" height="400%" color-interpolation-filters="sRGB">
        <feGaussianBlur in="SourceGraphic" stdDeviation="7 0" result="blur"></feGaussianBlur>
        <feDropShadow stdDeviation="12.307692307692308" in="blur" dx="-10" dy="-10" flood-color="hsl(205, 100%, 96%)" flood-opacity="0.26" x="0%" y="0%" width="100%" height="100%"></feDropShadow>
      </filter><linearGradient gradientTransform="rotate(62, 0.5, 0.5)" x1="50%" y1="0%" x2="50%" y2="100%" id="uuunion-grad"><stop stop-color="hsl(30, 0%, 100%)" offset="10%"></stop><stop stop-color="hsl(205, 100%, 96%)" offset="90%"></stop></linearGradient><linearGradient gradientTransform="rotate(135, 0.5, 0.5)" x1="50%" y1="0%" x2="50%" y2="100%" id="uuunion-grad2"><stop stop-color="hsl(30, 0%, 100%)" offset="25%"></stop><stop stop-color="hsl(205, 100%, 96%)" offset="100%"></stop></linearGradient><linearGradient gradientTransform="rotate(333, 0.5, 0.5)" x1="50%" y1="0%" x2="50%" y2="100%" id="uuunion-grad3"><stop stop-color="hsl(30, 0%, 100%)" offset="0%"></stop><stop stop-color="hsl(205, 100%, 96%)" offset="75%"></stop></linearGradient></defs><path d="M-80.05 -80.62Q-65.09 -77.55 -50.14 -74.71 -35.18 -72.36 -20.22 -70.72 -5.26 -69.95 9.69 -70.1 24.64 -71.18 39.6 -73.08 54.56 -75.62 69.52 -78.56 84.48 -81.64 99.43 -84.57 114.39 -87.07 129.35 -88.91 144.31 -89.93 159.27 -90.02 174.22 -89.18 189.18 -87.48 204.14 -85.09 219.1 -82.22 234.05 -79.15 249.01 -76.16 263.97 -73.52 278.93 -71.49 293.89 -70.24 308.84 -69.9 323.8 -70.51 338.76 -71.99 353.72 -74.22 368.68 -76.98 383.63 -80.03 398.59 -83.07 413.55 -85.83 428.51 -88.04 443.47 -89.51 458.42 -90.09 473.38 -89.73 488.34 -88.47 503.3 -86.42 518.26 -83.77 533.21 -80.77 548.17 -77.7 563.13 -74.85 578.09 -72.47 593.04 -70.79 608 -69.96 622.96 -70.07 637.92 -71.11 652.88 -72.97 667.83 -75.48 682.79 -78.41 697.75 -81.49 712.71 -84.43 727.67 -86.96 742.62 -88.84 757.58 -89.9 772.54 -90.04 787.5 -89.24 802.46 -87.58 817.41 -85.22 832.37 -82.38 847.33 -79.31 862.29 -76.3 877.24 -73.64 872.83 -58.65 870.42 -43.66 870.69 -28.68 873.58 -13.69 878.25 1.29 883.42 16.28 887.63 31.27 889.7 46.25 889.05 61.24 885.86 76.23 881.03 91.22 875.91 106.21 871.94 121.2 870.22 136.18 871.24 151.17 874.72 166.16 879.67 181.15 884.72 196.14 888.44 211.13 889.79 226.11 888.41 241.1 884.66 256.09 879.61 271.08 874.66 286.07 871.21 301.05 870.22 316.04 871.97 331.03 875.97 346.02 881.09 361.01 885.91 376 889.07 390.98 889.69 405.97 887.59 420.96 883.36 435.95 878.19 450.94 873.53 465.92 870.68 480.91 870.43 495.9 872.87 510.89 877.3 525.88 882.49 540.87 886.98 555.85 889.51 570.84 889.37 585.83 886.61 600.82 881.99 615.81 876.82 630.79 872.53 645.78 870.33 660.77 870.85 675.76 873.92 690.75 878.7 705.74 883.84 720.72 887.9 735.71 889.75 750.7 888.86 765.69 885.49 780.68 880.58 795.66 875.51 810.65 871.69 825.64 870.2 840.63 871.45 855.62 870.11 876.93 850.12 880.6 835.11 877.9 820.11 875.39 805.11 873.31 790.11 871.85 775.11 871.15 760.1 871.27 745.1 872.2 730.1 873.86 715.1 876.09 700.1 878.68 685.09 881.39 670.09 883.98 655.09 886.19 640.09 887.83 625.09 888.74 610.08 888.83 595.08 888.11 580.08 886.63 565.08 884.53 550.08 882.01 535.08 879.31 520.07 876.67 505.07 874.33 490.07 872.53 475.07 871.42 460.07 871.1 445.06 871.61 430.06 872.91 415.06 874.86 400.06 877.29 385.06 879.97 370.05 882.65 355.05 885.09 340.05 887.05 325.05 888.36 310.05 888.89 295.04 888.59 280.04 887.49 265.04 885.7 250.04 883.38 235.04 880.74 220.04 878.03 205.03 875.51 190.03 873.4 175.03 871.9 160.03 871.16 145.03 871.24 130.02 872.14 115.02 873.76 100.02 875.96 85.02 878.54 70.02 881.26 55.01 883.85 40.01 886.09 25.01 887.76 10.01 888.71 -4.98 888.85 -19.98 888.16 -34.99 886.72 -49.99 884.65 -64.99 882.15 -79.99 879.44 -80.09 864.44 -80.17 849.44 -80.19 834.44 -80.16 819.44 -80.09 804.44 -79.98 789.44 -79.88 774.44 -79.81 759.44 -79.8 744.43 -79.83 729.43 -79.92 714.43 -80.02 699.43 -80.12 684.43 -80.18 669.43 -80.19 654.43 -80.15 639.43 -80.06 624.43 -79.95 609.42 -79.86 594.42 -79.8 579.42 -79.8 564.42 -79.85 549.42 -79.94 534.42 -80.05 519.42 -80.14 504.42 -80.19 489.41 -80.19 474.41 -80.13 459.41 -80.03 444.41 -79.93 429.41 -79.84 414.41 -79.8 399.41 -79.81 384.41 -79.87 369.41 -79.97 354.4 -80.08 339.4 -80.16 324.4 -80.19 309.4 -80.17 294.4 -80.1 279.4 -80 264.4 -79.9 249.4 -79.82 234.39 -79.8 219.39 -79.82 204.39 -79.9 189.39 -80 174.39 -80.1 159.39 -80.17 144.39 -80.19 129.39 -80.16 114.39 -80.08 99.38 -79.97 84.38 -79.88 69.38 -79.81 54.38 -79.8 39.38 -79.84 24.38 -79.93 9.38 -80.03 -5.61 -80.13 -20.61 -80.18 -35.62 -80.19 -50.62 -80.14 -65.62 -80.05 -80.62" fill="url(#uuunion-grad)"></path><path d="M-80.05 -80.62Q-80.14 -65.62 -80.19 -50.62 -80.18 -35.62 -80.13 -20.61 -80.03 -5.61 -79.93 9.38 -79.84 24.38 -79.8 39.38 -79.81 54.38 -79.88 69.38 -79.97 84.38 -80.08 99.38 -80.16 114.39 -80.19 129.39 -80.17 144.39 -80.1 159.39 -80 174.39 -79.9 189.39 -79.82 204.39 -79.8 219.39 -79.82 234.39 -79.9 249.4 -80 264.4 -80.1 279.4 -80.17 294.4 -80.19 309.4 -80.16 324.4 -80.08 339.4 -79.97 354.4 -79.87 369.41 -79.81 384.41 -79.8 399.41 -69.7 401.34 -59.6 403.22 -49.5 404.96 -39.4 406.5 -29.3 407.77 -19.2 408.71 -0.27 409.44 2.99 409.49 15.6 402.84 28.14 395.61 40.6 387.85 52.98 379.67 65.26 371.18 77.45 362.53 89.56 353.87 101.6 345.36 113.59 337.15 125.56 329.36 137.54 322.09 149.55 315.41 161.63 309.35 173.82 303.89 186.13 298.99 198.59 294.56 211.21 290.48 223.99 286.62 236.92 282.81 250 278.91 263.2 274.76 276.49 270.23 289.82 265.2 303.15 259.59 316.43 253.37 329.62 246.53 342.67 239.1 355.55 231.17 368.21 222.83 380.64 214.23 392.83 205.51 404.78 196.84 416.51 188.36 428.04 180.23 439.41 172.57 450.68 165.46 461.9 158.96 473.14 153.09 484.47 147.84 495.94 143.12 507.61 138.85 519.54 134.9 531.77 131.12 544.31 127.35 557.18 123.43 570.36 119.22 583.84 114.57 597.57 109.4 611.5 103.61 625.55 97.19 639.65 90.15 653.72 82.53 667.67 74.42 681.42 65.95 694.91 57.24 708.06 48.47 720.84 39.8 733.21 31.37 745.18 23.34 756.74 15.81 767.94 8.87 778.83 2.57 789.49 -3.08 800 -8.14 794.73 -25.66 791.45 -43.18 791.41 -60.7 794.61 -78.21 799.85 -95.73 805.14 -113.25 808.49 -130.77 808.63 -148.28 793.58 -149.67 778.53 -150.17 763.48 -149.73 748.43 -148.4 733.38 -146.3 718.33 -143.62 703.28 -140.6 688.23 -137.53 673.18 -134.69 658.13 -132.33 643.08 -130.68 628.04 -129.88 612.99 -130.01 597.94 -131.06 582.89 -132.93 567.84 -135.44 552.79 -138.38 537.74 -141.46 522.69 -144.41 507.64 -146.95 492.59 -148.86 477.54 -149.95 462.49 -150.12 447.44 -149.37 432.4 -147.75 417.35 -145.43 402.3 -142.6 387.25 -139.53 372.2 -136.51 357.15 -133.81 342.1 -131.67 327.05 -130.3 312 -129.82 296.95 -130.27 281.9 -131.62 266.85 -133.74 251.81 -136.43 236.76 -139.44 221.71 -142.51 206.66 -145.35 191.61 -147.7 176.56 -149.33 161.51 -150.12 146.46 -149.97 131.41 -148.9 116.36 -147.02 101.31 -144.49 86.26 -141.55 71.22 -138.47 56.17 -135.53 41.12 -132.99 26.07 -131.1 11.02 -130.03 -4.02 -129.87 -19.07 -130.64 -34.12 -132.27 -49.17 -134.61 -64.22 -137.45 -79.27 -140.51 -94.32 -143.53 -109.37 -146.23 -124.41 -148.35 -134.4 -136.08 -117.12 -117.39 -107.78 -108.45 -98.49 -99.3 -89.25 -90 -80.05 -80.62" fill="url(#uuunion-grad2)" filter="url(#uuunion-blur)"></path><path d="M808.9 392.26Q818.99 393.53 829.09 395.08 839.19 396.83 849.29 398.71 859.39 400.64 869.49 402.55 879.59 404.35 889.69 405.97 887.59 420.96 883.36 435.95 878.19 450.94 873.53 465.92 870.68 480.91 870.43 495.9 872.87 510.89 877.3 525.88 882.49 540.87 886.98 555.85 889.51 570.84 889.37 585.83 886.61 600.82 881.99 615.81 876.82 630.79 872.53 645.78 870.33 660.77 870.85 675.76 873.92 690.75 878.7 705.74 883.84 720.72 887.9 735.71 889.75 750.7 888.86 765.69 885.49 780.68 880.58 795.66 875.51 810.65 871.69 825.64 870.2 840.63 871.45 855.62 870.73 877.03 852.58 881.05 838.82 878.56 825.05 876.18 811.28 874.1 797.51 872.48 783.75 871.45 769.98 871.1 756.21 871.43 742.45 872.45 728.68 874.05 714.91 876.12 701.14 878.49 687.38 880.98 673.61 883.39 659.84 885.54 646.07 887.25 632.31 888.4 618.54 888.88 604.77 888.67 591 887.78 577.24 886.27 563.47 884.28 549.7 881.95 535.93 879.46 522.17 877.02 508.4 874.81 494.63 873.01 480.87 871.75 467.1 871.15 453.33 871.23 439.56 872 425.8 873.4 412.03 875.32 398.26 877.6 384.49 880.07 370.73 882.53 356.96 884.8 343.19 886.69 329.42 888.05 315.66 888.78 301.89 888.83 288.12 888.18 274.35 886.89 260.59 885.06 246.82 882.83 233.05 880.38 219.29 877.9 205.52 875.58 191.75 873.61 177.98 872.14 164.22 871.29 150.45 871.12 136.68 871.64 122.91 872.82 109.15 874.56 95.38 876.73 81.61 879.16 67.84 881.65 54.08 884.01 40.31 886.05 26.54 887.62 5.72 883.75 -1.63 868.92 -1.86 858.93 -1.97 848.94 -1.96 838.96 -1.83 828.97 -1.19 813.99 -0.29 809 12.41 802.46 25.18 795.36 38 787.75 50.84 779.72 63.68 771.38 76.51 762.86 89.28 754.31 101.99 745.89 114.6 737.73 127.1 729.95 139.47 722.67 151.72 715.93 163.84 709.78 175.84 704.21 187.75 699.18 199.6 694.61 211.41 690.39 223.22 686.4 235.07 682.47 247 678.47 259.06 674.25 271.26 669.68 283.65 664.64 296.23 659.06 309.02 652.9 322.02 646.14 335.2 638.82 348.54 631.01 362 622.81 375.55 614.34 389.12 605.74 402.66 597.18 416.12 588.79 429.44 580.72 442.56 573.09 455.46 565.98 468.09 559.46 480.43 553.53 492.49 548.19 504.27 543.37 515.8 538.98 527.12 534.91 538.28 531 549.35 527.12 560.39 523.1 571.49 518.8 582.71 514.1 594.13 508.89 605.81 503.11 617.81 496.72 630.15 489.73 642.86 482.2 655.95 474.19 669.38 465.83 683.14 457.25 697.15 448.6 711.36 440.04 725.68 431.71 740.02 423.75 754.29 416.28 768.39 409.37 782.24 403.07 802.33 394.81 808.9 392.26" fill="url(#uuunion-grad3)" filter="url(#uuunion-blur2)"></path></svg>