<svg width="120" height="20" xmlns="http://www.w3.org/2000/svg" version="1.1" xml:space="preserve">
 <g>
  <title>Layer 1</title>
  <path stroke="null" d="m21.39906,4.44347c0,-1.67062 -1.24786,-3.02978 -2.78169,-3.02978s-2.78169,1.35916 -2.78169,3.02978l1.66902,0c0,-0.66823 0.49916,-1.2119 1.11267,-1.2119c0.61351,0 1.11267,0.54368 1.11267,1.2119c0,0.66823 -0.49916,1.2119 -1.11267,1.2119l-11.68318,0l0,1.81788l11.68313,0c1.53383,0.00006 2.78174,-1.35916 2.78174,-3.02978z" fill="#00bfbf" id="svg_1"/>
  <path stroke="null" d="m25.43395,2.48437c-1.55292,0 -2.81635,1.51043 -2.81635,3.36697c0,1.35023 0.91886,2.44868 2.04822,2.44868c1.12942,0 2.04822,-1.09851 2.04822,-2.44868l-1.53619,0c0,0.33755 -0.22969,0.6122 -0.51208,0.6122s-0.51208,-0.2746 -0.51208,-0.6122c0,-0.84391 0.5743,-1.53044 1.28016,-1.53044c1.12942,0 2.04822,1.09851 2.04822,2.44868s-0.91886,2.44868 -2.04822,2.44868l-19.20224,0l0,1.83653l19.20234,0c1.97653,0 3.58442,-1.92236 3.58442,-4.28521s-1.60793,-4.28521 -3.58442,-4.28521l0,-0.00002z" fill="#007fff" id="svg_2"/>
  <path stroke="null" d="m21.76323,12.15852l-12.95549,0l0,1.86207l12.95545,0c0.68691,0 1.24571,0.69612 1.24571,1.55171s-0.55885,1.55171 -1.24571,1.55171s-1.24571,-0.69612 -1.24571,-1.55171l-1.49486,0c0,1.88236 1.22943,3.41379 2.74058,3.41379s2.74058,-1.53143 2.74058,-3.41379s-1.22939,-3.41379 -2.74054,-3.41379l0.00001,0.00001z" fill="#56aaff" id="svg_3"/>
  <g id="svg_4"/>
  <g id="svg_5"/>
  <g id="svg_6"/>
  <g id="svg_7"/>
  <g id="svg_8"/>
  <g id="svg_9"/>
  <g id="svg_10"/>
  <g id="svg_11"/>
  <g id="svg_12"/>
  <g id="svg_13"/>
  <g id="svg_14"/>
  <g id="svg_15"/>
  <g id="svg_16"/>
  <g id="svg_17"/>
  <g id="svg_18"/>
  <text transform="matrix(1 0 0 1 0 0)" font-weight="bold" stroke="null" xml:space="preserve" text-anchor="start" font-family="'Gemunu Libre'" font-size="16" stroke-width="1.5" id="svg_19" y="15.50355" x="36.46452" fill="#000000">Martin Code</text>
 </g>

</svg>