<?xml version="1.0" standalone="no"?>
<!DOCTYPE svg PUBLIC "-//W3C//DTD SVG 20010904//EN"
 "http://www.w3.org/TR/2001/REC-SVG-20010904/DTD/svg10.dtd">
<svg version="1.0" xmlns="http://www.w3.org/2000/svg"
 width="832.000000pt" height="832.000000pt" viewBox="0 0 832.000000 832.000000"
 preserveAspectRatio="xMidYMid meet">
<metadata>
Created by potrace 1.14, written by Peter Selinger 2001-2017
</metadata>
<g transform="translate(0.000000,832.000000) scale(0.100000,-0.100000)"
fill="#000000" stroke="none">
<path d="M361 7344 c-106 -28 -203 -88 -261 -160 -54 -68 -55 -69 -57 -79 -2
-6 -12 -35 -23 -65 -19 -54 -19 -94 -20 -2876 0 -3075 -4 -2862 55 -2965 45
-80 140 -162 221 -193 51 -19 76 -28 94 -35 8 -3 1682 -7 3720 -8 3665 -3
3705 -3 3776 17 164 45 279 147 331 293 l22 62 0 2825 c0 2815 0 2825 -20
2884 -47 138 -150 235 -304 288 l-80 27 -3700 0 c-3193 0 -3707 -2 -3754 -15z
m5370 -306 c119 -55 183 -144 183 -258 0 -45 -7 -79 -21 -110 -23 -50 -88
-119 -130 -139 -16 -7 -36 -17 -46 -22 -44 -23 -167 -27 -226 -8 -172 56 -261
200 -217 353 26 90 103 162 215 201 60 21 177 13 242 -17z m901 2 c105 -41
188 -151 188 -251 0 -147 -97 -258 -260 -296 -8 -2 -36 -3 -62 -4 -247 -5
-413 240 -291 430 40 64 125 122 200 140 60 14 163 5 225 -19z m913 -4 c70
-35 99 -59 135 -110 34 -50 42 -80 42 -156 1 -153 -144 -279 -324 -282 -120
-2 -252 73 -297 168 -7 16 -16 36 -20 44 -16 34 -12 117 9 172 28 76 111 154
185 175 65 17 90 21 148 18 49 -3 84 -11 122 -29z m181 -3231 c0 -1314 -1
-2394 -3 -2400 -2 -7 -1213 -10 -3611 -9 -1984 1 -3610 2 -3613 3 -4 1 -5
4795 -1 4796 1 1 1628 1 3615 0 l3612 0 1 -2390z"/>
<path d="M4350 5130 c-53 -9 -96 -39 -113 -79 -20 -45 -47 -120 -52 -144 -2
-10 -7 -27 -10 -37 -3 -10 -8 -27 -10 -37 -5 -22 -48 -176 -70 -253 -9 -30
-17 -62 -19 -70 -2 -8 -9 -35 -16 -60 -7 -25 -14 -52 -16 -60 -2 -8 -10 -40
-19 -70 -9 -30 -17 -62 -19 -70 -2 -8 -11 -40 -19 -70 -8 -30 -25 -91 -36
-135 -12 -44 -26 -91 -30 -105 -9 -24 -67 -236 -76 -276 -2 -10 -11 -44 -20
-74 -13 -46 -71 -262 -80 -295 -1 -5 -5 -17 -8 -25 -21 -48 -87 -342 -87 -384
0 -69 32 -110 99 -126 108 -26 196 1 230 69 19 38 60 159 68 200 2 14 6 28 9
33 3 4 7 16 9 25 4 24 39 154 60 223 9 30 19 69 22 85 3 17 9 37 13 45 4 8 11
32 14 54 4 21 9 43 13 48 5 9 16 49 58 208 2 8 24 89 50 180 25 91 48 174 50
185 3 11 34 126 71 255 36 129 67 243 69 253 4 16 16 62 62 227 32 119 33 178
2 222 -35 49 -115 72 -199 58z"/>
<path d="M3265 4742 c-82 -32 -154 -60 -160 -63 -5 -4 -28 -12 -50 -19 -22 -7
-58 -20 -80 -30 -22 -10 -119 -47 -215 -83 -96 -36 -222 -85 -280 -107 -58
-23 -127 -50 -155 -60 -27 -10 -104 -39 -170 -65 -66 -26 -124 -48 -130 -49
-5 -2 -23 -9 -40 -15 -16 -7 -95 -38 -175 -68 -80 -30 -150 -59 -156 -64 -6
-5 -9 -72 -8 -191 1 -101 2 -186 3 -189 0 -3 22 -13 49 -22 26 -8 142 -52 257
-97 116 -45 215 -83 220 -84 6 -2 21 -8 35 -13 27 -12 233 -91 400 -154 58
-22 114 -44 125 -49 11 -4 58 -22 105 -40 47 -18 94 -36 105 -41 11 -4 58 -22
105 -39 47 -17 94 -36 105 -40 19 -9 135 -53 145 -55 3 -1 19 -7 35 -14 17 -6
43 -17 58 -23 15 -6 30 -8 33 -5 9 9 6 429 -3 437 -4 4 -30 14 -58 23 -58 18
-363 124 -385 134 -8 3 -17 7 -20 8 -40 10 -268 90 -277 98 -7 5 -13 7 -13 4
0 -4 -30 5 -67 20 -64 24 -227 81 -248 87 -5 2 -19 6 -30 10 -11 5 -32 12 -47
17 -16 5 -42 14 -58 20 l-31 12 53 19 c29 10 60 20 68 23 8 2 148 49 310 105
162 56 302 103 310 105 8 2 51 17 95 33 44 16 82 29 85 30 3 0 12 3 20 6 104
36 197 68 205 70 6 1 15 4 20 8 6 3 25 9 43 13 32 7 32 7 33 68 0 57 0 328 -1
370 0 9 -3 17 -7 16 -5 0 -75 -26 -158 -57z"/>
<path d="M4789 4782 c0 -24 0 -294 0 -367 l1 -60 193 -64 c105 -35 197 -67
202 -70 6 -3 13 -6 18 -7 4 -1 9 -3 12 -4 3 -1 8 -3 13 -4 4 -1 39 -13 77 -26
39 -13 75 -25 80 -26 6 -2 35 -12 65 -23 65 -24 410 -142 425 -146 6 -1 23 -7
38 -13 16 -7 32 -12 36 -12 16 0 83 -31 78 -36 -2 -2 -13 -6 -23 -9 -20 -4
-398 -134 -446 -154 -16 -6 -28 -8 -28 -5 0 4 -6 2 -12 -3 -10 -8 -68 -31 -98
-38 -3 -1 -12 -4 -20 -8 -8 -3 -44 -15 -80 -27 -36 -13 -141 -49 -235 -82 -93
-33 -198 -69 -232 -80 -35 -11 -63 -26 -64 -32 -3 -55 0 -429 4 -433 3 -2 13
0 24 5 10 6 50 22 88 37 90 35 116 45 137 56 10 5 23 9 29 9 6 0 25 6 42 14
18 8 55 22 82 32 28 10 61 24 75 31 14 7 31 13 38 13 7 0 20 4 30 10 9 5 60
26 112 45 108 41 245 94 275 106 20 9 228 88 415 160 58 22 114 44 125 48 34
15 160 63 170 65 6 2 28 10 49 20 22 9 50 19 63 22 28 7 26 -10 27 210 l1 182
-50 18 c-27 10 -52 19 -55 19 -3 1 -16 7 -30 13 -14 6 -56 23 -95 37 -38 15
-97 37 -130 50 -33 12 -98 37 -145 55 -47 17 -112 42 -145 55 -33 13 -109 42
-170 65 -60 22 -126 47 -145 55 -19 7 -66 25 -105 40 -38 15 -79 31 -90 35
-11 5 -45 17 -75 29 -30 11 -68 26 -85 32 -16 7 -32 13 -35 14 -3 1 -14 5 -25
9 -11 5 -63 24 -115 43 -52 20 -108 41 -125 48 -16 7 -37 15 -45 18 -8 3 -39
14 -67 26 -49 19 -53 19 -54 3z"/>
</g>
</svg>
