<svg width="180" height="40" viewBox="0 0 180 40" fill="none" xmlns="http://www.w3.org/2000/svg">
  <defs>
    <linearGradient id="paint0_linear_253_63" x1="10.371" y1="16.2901" x2="22.021" y2="25.245" gradientUnits="userSpaceOnUse">
      <stop stop-color="#40C3EC" />
      <stop offset="1" stop-color="#AB00D5" />
    </linearGradient>
    <linearGradient id="paint1_linear_253_63" x1="22.8429" y1="14.3521" x2="31.6992" y2="16.9481" gradientUnits="userSpaceOnUse">
      <stop stop-color="#40C3EC" />
      <stop offset="1" stop-color="#AB00D5" />
    </linearGradient>
    <linearGradient id="paint2_linear_253_63" x1="30.0207" y1="16.3286" x2="41.6552" y2="25.2876" gradientUnits="userSpaceOnUse">
      <stop stop-color="#40C3EC" />
      <stop offset="1" stop-color="#AB00D5" />
    </linearGradient>
    <linearGradient id="paint3_linear_253_63" x1="0.443077" y1="1.1761" x2="44.4625" y2="43.7558" gradientUnits="userSpaceOnUse">
      <stop stop-color="#40C3EC" />
      <stop offset="1" stop-color="#AB00D5" />
    </linearGradient>
    <clipPath id="clip0_253_63">
      <rect width="180" height="40" fill="white" />
    </clipPath>
  </defs>
  <g clip-path="url(#clip0_253_63)">
    <path d="M21.4488 24.1354V26.9168L10.2747 22.6314V20.2532L21.4488 15.9682V18.7691L13.6627 21.4232L21.4488 24.1354Z" fill="url(#paint0_linear_253_63)" />
    <path d="M28.3581 15.9091L25.2474 27.2409C25.1442 27.6141 25.0538 27.9095 24.9757 28.1255C24.8981 28.3418 24.7794 28.5114 24.6207 28.6309C24.4614 28.7527 24.2297 28.8127 23.9261 28.8127C23.171 28.8127 22.7928 28.5236 22.7928 27.9482C22.7928 27.7973 22.8673 27.4209 23.0153 26.8182L26.1146 15.4864C26.2775 14.8836 26.4326 14.4709 26.5806 14.2482C26.729 14.0255 27.0178 13.9141 27.4478 13.9141C27.8182 13.9141 28.1007 13.9927 28.2969 14.15C28.4932 14.3073 28.5913 14.5236 28.5913 14.7986C28.5913 15.0018 28.5132 15.3718 28.3581 15.9091Z" fill="url(#paint1_linear_253_63)" />
    <path d="M41.0985 22.6314L29.9243 26.9364V24.155L37.733 21.4427L29.9243 18.7691V16.0073L41.0985 20.2727V22.6314Z" fill="url(#paint2_linear_253_63)" />
    <path d="M48.2906 0H3.08238C1.38039 0 0 1.22136 0 2.72727V37.2727C0 38.7786 1.38039 40 3.08238 40H48.2906C49.9931 40 51.373 38.7782 51.373 37.2727V2.72727C51.373 1.22091 49.9931 0 48.2906 0ZM40.5847 1.81818C41.7174 1.81818 42.6396 2.63364 42.6396 3.63636C42.6396 4.63909 41.7174 5.45455 40.5847 5.45455C39.4519 5.45455 38.5297 4.63909 38.5297 3.63636C38.5297 2.63364 39.4519 1.81818 40.5847 1.81818ZM34.9336 1.81818C36.0664 1.81818 36.9885 2.63364 36.9885 3.63636C36.9885 4.63909 36.0664 5.45455 34.9336 5.45455C33.8008 5.45455 32.8787 4.63909 32.8787 3.63636C32.8787 2.63364 33.8008 1.81818 34.9336 1.81818ZM48.2906 37.2727H3.08238V7.27273H48.2906V37.2727ZM46.2357 5.45455C45.1029 5.45455 44.1808 4.63909 44.1808 3.63636C44.1808 2.63364 45.1029 1.81818 46.2357 1.81818C47.3685 1.81818 48.2906 2.63364 48.2906 3.63636C48.2906 4.63909 47.3685 5.45455 46.2357 5.45455Z" fill="url(#paint3_linear_253_63)" />
    <path d="M82.6955 30.9998H86.0849V16.3137L82.6955 21.4601V30.9998ZM86.0852 11.0835H82.4537L76.5224 20.6235L70.6315 11.0835H67V30.9999H70.3894V16.858L76.442 26.272H76.563L81.8486 18.1551C81.8756 18.0435 83.2878 15.6865 86.0854 11.0841L86.0852 11.0835ZM98.8757 14.3472H104.969V11.0837H89.3937V14.3472H98.8757ZM95.4866 17.611H98.876V30.9999H95.4866V17.611ZM111.263 17.025C111.747 15.7978 112.447 14.7518 113.361 13.887C114.195 13.0223 115.271 12.325 116.589 11.795C117.907 11.265 119.293 11 120.745 11H125.224V14.1799H120.786C119.737 14.1799 118.809 14.3612 118.002 14.7238C117.141 15.0864 116.441 15.5606 115.903 16.1464C115.339 16.7042 114.881 17.4295 114.532 18.3221C114.209 19.131 114.047 20.0375 114.047 21.0417C114.047 22.0459 114.209 22.9524 114.532 23.7613C114.854 24.5981 115.312 25.3233 115.903 25.937C116.441 26.4949 117.141 26.9551 118.002 27.3178C118.862 27.6525 119.79 27.8198 120.786 27.8198H125.224V30.9997H120.745C119.239 30.9997 117.867 30.7487 116.63 30.2466C115.339 29.6887 114.249 28.9774 113.361 28.1127C112.447 27.2201 111.747 26.1601 111.263 24.9329C110.752 23.6497 110.497 22.3387 110.497 20.9998C110.497 19.5772 110.752 18.2524 111.263 17.025ZM137.128 27.8199C136.724 27.7362 136.347 27.6107 135.998 27.4433C135.244 27.0807 134.585 26.5786 134.021 25.937C133.483 25.3512 133.052 24.626 132.729 23.7613C132.433 22.8966 132.286 22.018 132.286 21.1253V21.0417V20.9161C132.286 19.9956 132.433 19.1031 132.729 18.2383C133.079 17.3458 133.51 16.6344 134.021 16.1045C134.559 15.4629 135.204 14.9747 135.957 14.64C136.415 14.4169 136.805 14.2774 137.128 14.2217V11.0836C136.186 11.2231 135.352 11.4602 134.626 11.7949C133.442 12.3249 132.433 13.0361 131.6 13.9288C130.766 14.8214 130.107 15.8813 129.622 17.1086C129.138 18.3359 128.896 19.619 128.896 20.9579V21.0416V21.1671C128.896 22.5339 129.138 23.8171 129.622 25.0165C130.053 26.216 130.698 27.262 131.559 28.1546C132.42 29.0751 133.429 29.7864 134.586 30.2885C135.312 30.6232 136.159 30.8603 137.128 30.9997V27.8199ZM148.103 21.0417L148.103 20.9162C148.103 19.5494 147.861 18.2663 147.376 17.0668C146.892 15.8395 146.233 14.7796 145.399 13.887C144.592 12.9944 143.597 12.297 142.413 11.7949C141.741 11.4602 140.92 11.2231 139.952 11.0837V14.2636L140.436 14.4309C140.678 14.5146 140.867 14.5843 141.001 14.6401C141.754 15.0028 142.413 15.5048 142.978 16.1464C143.516 16.7322 143.947 17.4574 144.269 18.3221C144.565 19.1868 144.713 20.0654 144.713 20.9581V21.0417V21.1673C144.713 22.0878 144.565 22.9804 144.269 23.8451C143.92 24.7376 143.489 25.449 142.978 25.979C142.44 26.6205 141.795 27.1087 141.041 27.4434C140.692 27.6108 140.329 27.7363 139.952 27.82V30.9998C140.759 30.8883 141.566 30.6511 142.373 30.2885C143.476 29.8143 144.485 29.1031 145.399 28.1546C146.287 27.1784 146.946 26.1184 147.376 24.9748C147.861 23.7475 148.103 22.4644 148.103 21.1255L148.103 21.0417ZM165.776 24.9749C165.265 26.258 164.565 27.318 163.678 28.1548C162.763 29.0473 161.687 29.7448 160.45 30.2468C159.212 30.7489 157.827 31 156.294 31H151.815V27.8201H156.253C157.276 27.8201 158.204 27.6528 159.038 27.318C159.845 26.9833 160.544 26.5091 161.136 25.8954C161.728 25.2817 162.185 24.5565 162.508 23.7197C162.83 22.8829 162.992 21.9624 162.992 20.9582C162.992 19.9819 162.83 19.0754 162.508 18.2386C162.185 17.3739 161.728 16.6626 161.136 16.1047C160.598 15.5189 159.898 15.0448 159.038 14.6821C158.177 14.3474 157.249 14.18 156.253 14.18H151.815V11.0001H156.294C157.719 11.0001 159.091 11.2651 160.409 11.7951C161.647 12.2693 162.736 12.9806 163.678 13.929C164.592 14.7937 165.292 15.8537 165.776 17.1089C166.287 18.392 166.543 19.703 166.543 21.0419C166.543 22.4924 166.287 23.8034 165.776 24.9749ZM172.635 11.0835H187V14.2634H172.635V11.0835ZM172.635 27.8199H186.959V30.9998H172.635V27.8199ZM172.635 19.3681H185.587V22.5062H172.635V19.3681Z" fill="currentColor" />
  </g>
</svg>