<?xml version="1.0" encoding="utf-8"?>
<svg viewBox="0 161.619 1440 158.381" xmlns="http://www.w3.org/2000/svg">
  <path fill="#ffffff" fillopacity="1" d="M 0 205.133 L 60 192.39 C 120 179.407 240 154.28 360 163.673 C 480 173.425 600 217.696 720 240.251 C 840 262.566 960 262.566 1080 256.165 C 1200 250.003 1320 236.841 1380 230.679 L 1440 224.277 L 1440 320 L 1380 320 C 1320 320 1200 320 1080 320 C 960 320 840 320 720 320 C 600 320 480 320 360 320 C 240 320 120 320 60 320 L 0 320 L 0 205.133 Z" style=""/>
</svg>